solid patch_3_0
 facet normal 0.0 -2.220446049250313e-16 -1.0
  outer loop
   vertex -0.025 0.0 0.0
   vertex -0.005 0.0 0.0
   vertex -0.025 -0.01 2.220446049250313e-18
  endloop
 endfacet
 facet normal 0.0 -2.220446049250313e-16 -1.0
  outer loop
   vertex -0.025 -0.01 2.220446049250313e-18
   vertex -0.005 0.0 0.0
   vertex -0.005 -0.01 2.220446049250313e-18
  endloop
 endfacet
 facet normal 1.0 0.0 -0.0
  outer loop
   vertex -0.005 0.0 0.0
   vertex -0.005 3.3306690738754695e-18 0.015
   vertex -0.005 -0.01 2.220446049250313e-18
  endloop
 endfacet
 facet normal 1.0 0.0 0.0
  outer loop
   vertex -0.005 -0.01 2.220446049250313e-18
   vertex -0.005 3.3306690738754695e-18 0.015
   vertex -0.005 -0.01 0.015
  endloop
 endfacet
 facet normal 0.0 0.0 -1.0
  outer loop
   vertex -0.005 3.3306690738754695e-18 0.015
   vertex 0.005 3.3306690738754695e-18 0.015
   vertex -0.005 -0.01 0.015
  endloop
 endfacet
 facet normal 0.0 0.0 -1.0
  outer loop
   vertex -0.005 -0.01 0.015
   vertex 0.005 3.3306690738754695e-18 0.015
   vertex 0.005 -0.01 0.015
  endloop
 endfacet
 facet normal -1.0 -0.0 0.0
  outer loop
   vertex 0.005 3.3306690738754695e-18 0.015
   vertex 0.005 0.0 0.0
   vertex 0.005 -0.01 0.015
  endloop
 endfacet
 facet normal -1.0 0.0 0.0
  outer loop
   vertex 0.005 -0.01 0.015
   vertex 0.005 0.0 0.0
   vertex 0.005 -0.01 2.220446049250313e-18
  endloop
 endfacet
 facet normal 0.0 -2.220446049250313e-16 -1.0
  outer loop
   vertex 0.005 0.0 0.0
   vertex 0.025 0.0 0.0
   vertex 0.005 -0.01 2.220446049250313e-18
  endloop
 endfacet
 facet normal -2.2204460823375376e-17 -1.77635686587003e-16 -1.0
  outer loop
   vertex 0.005 -0.01 2.220446049250313e-18
   vertex 0.025 0.0 0.0
   vertex 0.025 -0.01 1.7763568394002505e-18
  endloop
 endfacet
 facet normal 0.0 0.0 1.0
  outer loop
   vertex 0.025 6.661338147750939e-18 0.03
   vertex -0.025 6.661338147750939e-18 0.03
   vertex 0.025 -0.01 0.03
  endloop
 endfacet
 facet normal 0.0 0.0 1.0
  outer loop
   vertex 0.025 -0.01 0.03
   vertex -0.025 6.661338147750939e-18 0.03
   vertex -0.025 -0.01 0.03
  endloop
 endfacet
 facet normal 0.0 1.0 -2.220446049250313e-16
  outer loop
   vertex -0.005 3.3306690738754695e-18 0.015
   vertex -0.005 0.0 0.0
   vertex -0.025 0.0 0.0
  endloop
 endfacet
 facet normal 0.0 1.0 -2.220446049250313e-16
  outer loop
   vertex -0.005 3.3306690738754695e-18 0.015
   vertex -0.025 0.0 0.0
   vertex -0.025 6.661338147750939e-18 0.03
  endloop
 endfacet
 facet normal 0.0 1.0 -2.220446049250313e-16
  outer loop
   vertex 0.025 0.0 0.0
   vertex 0.005 0.0 0.0
   vertex 0.005 3.3306690738754695e-18 0.015
  endloop
 endfacet
 facet normal 0.0 1.0 -2.220446049250313e-16
  outer loop
   vertex 0.025 6.661338147750939e-18 0.03
   vertex 0.005 3.3306690738754695e-18 0.015
   vertex -0.005 3.3306690738754695e-18 0.015
  endloop
 endfacet
 facet normal 0.0 1.0 -2.220446049250313e-16
  outer loop
   vertex 0.025 6.661338147750939e-18 0.03
   vertex 0.025 0.0 0.0
   vertex 0.005 3.3306690738754695e-18 0.015
  endloop
 endfacet
 facet normal 0.0 1.0 -2.220446049250313e-16
  outer loop
   vertex 0.025 6.661338147750939e-18 0.03
   vertex -0.005 3.3306690738754695e-18 0.015
   vertex -0.025 6.661338147750939e-18 0.03
  endloop
 endfacet
 facet normal 0.0 -1.0 0.0
  outer loop
   vertex -0.005 -0.01 2.220446049250313e-18
   vertex -0.005 -0.01 0.015
   vertex -0.025 -0.01 2.220446049250313e-18
  endloop
 endfacet
 facet normal 0.0 -1.0 0.0
  outer loop
   vertex -0.025 -0.01 2.220446049250313e-18
   vertex -0.005 -0.01 0.015
   vertex -0.025 -0.01 0.03
  endloop
 endfacet
 facet normal 0.0 -1.0 0.0
  outer loop
   vertex -0.005 -0.01 0.015
   vertex 0.005 -0.01 0.015
   vertex -0.025 -0.01 0.03
  endloop
 endfacet
 facet normal 0.0 -1.0 0.0
  outer loop
   vertex 0.005 -0.01 2.220446049250313e-18
   vertex 0.025 -0.01 1.7763568394002505e-18
   vertex 0.005 -0.01 0.015
  endloop
 endfacet
 facet normal 0.0 -1.0 0.0
  outer loop
   vertex 0.025 -0.01 1.7763568394002505e-18
   vertex 0.025 -0.01 0.03
   vertex 0.005 -0.01 0.015
  endloop
 endfacet
 facet normal 0.0 -1.0 0.0
  outer loop
   vertex 0.005 -0.01 0.015
   vertex 0.025 -0.01 0.03
   vertex -0.025 -0.01 0.03
  endloop
 endfacet
endsolid patch_3_0
